<svg xmlns="http://www.w3.org/2000/svg" viewBox="0 0 754.19 250.14"><defs><style>.cls-1{fill:#fcf8ce;}</style></defs><title>Asset 6</title><g id="Layer_2" data-name="Layer 2"><g id="Layer_7" data-name="Layer 7"><path class="cls-1" d="M.1,39a371.29,371.29,0,0,1,100-31,514.23,514.23,0,0,1,55.25-6.1C171.23,1,187.15-.53,203.07.19c14,.63,28.05,2,42,3.54,14.15,1.58,28.25,3.42,42.35,5.35,14.58,2,29.12,4.33,43.68,6.47q22.33,3.28,44.68,6.5c12.76,1.84,25.52,3.74,38.31,5.48,14.09,1.92,28.2,3.7,42.31,5.51,12.46,1.61,24.92,3.24,37.4,4.74,9.85,1.18,19.78,1.87,29.59,3.35,7.9,1.19,15.87,1,23.79,1.64,10.54.89,21.17-.66,31.75-1.5,11.39-.9,22.69-2.52,34-4.14,23.62-3.39,46.93-8.34,70.19-13.58S729.58,12.43,752.6,6.13A7.43,7.43,0,0,1,754.1,6q0,120,.09,240c0,3.43-.67,4.1-4.09,4.1q-373-.15-746,0c-3.43,0-4.11-.67-4.1-4.1Q.2,142.54.1,39Z"/></g></g></svg>