<svg xmlns="http://www.w3.org/2000/svg" viewBox="0 0 414.39 294.31"><defs><style>.cls-1{fill:#83ab9f;}</style></defs><title>Asset 3</title><g id="Layer_2" data-name="Layer 2"><g id="Layer_2-2" data-name="Layer 2"><path class="cls-1" d="M14.54,229.79c15.06-22.13,30.34-44.11,44.35-66.95,11.78-19.21,20.17-40.15,31.2-59.73,28.16-50,70.29-81.63,126-95.28A285.56,285.56,0,0,1,269.28.45a358.59,358.59,0,0,1,51.31,1.14c20.32,1.87,37.51,10.79,52.9,23.67,15.65,13.1,27.46,29.33,37.95,46.63.84,1.37,1.17,3.18,2.95,3.85v155c-48.19,28.67-101.51,41.67-156,51.07-29.5,5.09-59.24,8.14-89.12,10.24q-34.4,2.42-68.82,2.25c-23.91-.08-47.92-.22-71.49-5.48-6.36-1.43-12.59-3.19-18.24-6.54C1.37,276.75-1.73,269.1.9,258.53c2.28-9.19,7.15-17.15,11.81-25.22C13.37,232.16,13.93,231,14.54,229.79Z"/></g></g></svg>