<svg xmlns="http://www.w3.org/2000/svg" viewBox="0 0 208.69 51.69"><defs><style>.cls-1{fill:#816a80;}.cls-2{fill:#816980;}</style></defs><title>Asset 5</title><g id="Layer_2" data-name="Layer 2"><g id="Layer_6" data-name="Layer 6"><path class="cls-1" d="M65.73,9.6c-2.52,1.11-4.87,1.44-7.54,0-7.22-4-14.64-4-22-.16-2.37,1.24-4.45,1.64-7,.23-7.77-4.3-15.56-3.91-23.35.24-1.62.87-3.52,3-5.24-.43-1.54-3.11.08-4,2.4-5.2C11.8-.4,20.69-1.65,29.8,2.92c2.27,1.14,4.14.68,6.13-.27a25,25,0,0,1,22.61.12A6.44,6.44,0,0,0,65.89,2C73.64-.6,81.27-.64,88.64,3.22c1.76.92,3.19.38,4.72-.36a26,26,0,0,1,23.6,0,5.85,5.85,0,0,0,5.65,0,25.32,25.32,0,0,1,23.11-.15,7,7,0,0,0,6.6-.07,24.82,24.82,0,0,1,22.19-.09c2.65,1.27,4.88,1,7.53-.1C190.69-1,199,.36,206.94,4.9c2.35,1.33,1.84,2.49.93,4.37-1.06,2.23-2.15,2.45-4.19,1.17-7.44-4.62-15.09-4.79-22.75-.57a5.34,5.34,0,0,1-5.62-.08c-7.76-4.22-15.57-4.43-23.33,0a5.66,5.66,0,0,1-6.09,0c-7.78-4.34-15.59-4.25-23.32.14a5.26,5.26,0,0,1-5.63-.06c-7.74-4.31-15.58-4.47-23.32-.08-2.61,1.48-4.65.67-7-.49C79.65,5.8,72.63,5.32,65.73,9.6Z"/><path class="cls-2" d="M65.92,30.05c-2.83,1.62-5.48,1.34-8.39-.2-6.93-3.67-14-3.81-21,.1a7.11,7.11,0,0,1-7.49.19c-7.61-4.15-15.2-3.95-22.85.24-1.42.78-3.67,3.3-5.38-.15C-.24,28-.57,26.53,2.28,25.13c9.11-4.48,18.26-6.26,27.76-1.51a5.73,5.73,0,0,0,5.6-.18c7-3.32,14.2-3.87,21.24-.66,4.1,1.87,7.53,1.61,11.06-.83,7-1.85,13.86-1.57,20.39,1.78,1.86,1,3.38.63,5.14-.22a25.89,25.89,0,0,1,23.13-.14,6.86,6.86,0,0,0,6.51-.08,25.68,25.68,0,0,1,22.22-.13,7.46,7.46,0,0,0,7,.14,25.34,25.34,0,0,1,22.66.11c2.4,1.17,4.23.85,6.52-.12,8.78-3.71,17.19-2.41,25.37,2.16,2.24,1.25,2.15,2.34,1.1,4.32s-2.2,2.57-4.28,1.29c-7.45-4.58-15.12-4.72-22.76-.56-2.45,1.34-4.48.64-6.55-.49-7.35-4-14.68-3.82-21.92.16a6.56,6.56,0,0,1-7,0C138,26,130.53,26,123.13,30.24a6.05,6.05,0,0,1-6.53.06c-7.57-4.24-15.27-4.43-22.77.06-2.85,1.7-5.06.57-7.44-.59C79.51,26.4,72.69,26,65.92,30.05Z"/><path class="cls-2" d="M65.91,50a8.5,8.5,0,0,1-8.46-.25c-6.56-3.59-13.34-3.91-20-.25a9.23,9.23,0,0,1-9.76,0c-7.21-4-14.39-2.79-21.46.79-1.82.93-3.85,3.07-5.62-.61-1.88-3.87,1.16-4.09,3.2-5.15,8.63-4.47,17.43-5.26,26.33-.87,2.08,1,3.77.54,5.64-.33a25.61,25.61,0,0,1,23.1.21c3.42,1.7,5.65,0,8.23-1.39,7.32-1.9,14.51-2,21.37,1.63,1.88,1,3.43.46,5.16-.37a26.12,26.12,0,0,1,23.16,0,6.3,6.3,0,0,0,6.06,0,25.9,25.9,0,0,1,23.15.06,6.4,6.4,0,0,0,6.07-.1,26,26,0,0,1,22.71-.1,7.16,7.16,0,0,0,6.56.09c8.75-3.86,17.19-2.58,25.37,2,2,1.14,2.57,2.12,1.34,4.27-1.1,1.91-1.95,2.83-4.19,1.45-7.61-4.65-15.43-4.77-23.24-.48a4.91,4.91,0,0,1-5.16-.18c-7.93-4.37-15.89-4.55-23.76.08-2.43,1.43-4.48.55-6.56-.55-7.17-3.77-14.35-4-21.46,0a7.44,7.44,0,0,1-8-.08c-6.76-3.67-13.69-4-20.52-.21-3.24,1.81-6.06,1.62-9.33-.1C79.23,46,72.47,46,65.91,50Z"/></g></g></svg>