<?xml version="1.0" encoding="utf-8"?>
<!-- Generator: Adobe Illustrator 23.0.3, SVG Export Plug-In . SVG Version: 6.00 Build 0)  -->
<svg version="1.1" xmlns="http://www.w3.org/2000/svg" xmlns:xlink="http://www.w3.org/1999/xlink" x="0px" y="0px"
	 viewBox="0 0 73 91" style="enable-background:new 0 0 73 91;" xml:space="preserve">
<style type="text/css">
	.st0{fill:#0A0A0A;}
	.st1{fill:#0B0B0B;}
	.st2{fill:#FEFDF5;}
	.st3{fill:#0B0B0C;}
	.st4{fill:#181718;}
	.st5{fill:#0E0E0E;}
	.st6{fill:#0F0F0F;}
	.st7{fill:#101011;}
	.st8{fill:#0C0C0D;}
	.st9{fill:#121212;}
</style>
<g id="Layer_2">
</g>
<g id="Layer_1">
	<title>web</title>
	<desc>Created with Sketch.</desc>
	<g id="Page-1">
		<g id="Shapes" transform="translate(-207.000000, -727.000000)">
			<g>
				<path class="st0" d="M273.5,727.2c0.5,0.1,1,0.3,1.5,0.4c3,1.1,5,3.9,5.1,7.2c0,3,0,5.9,0,8.9c0,10.5,0,21.1,0,31.6
					c0,3.8-2.3,6.8-5.8,7.7c-0.8,0.2-1.6,0.2-2.4,0.2c-6.4,0-12.8,0-19.2,0c-0.8,0-1,0.1-0.7,0.9c0.6,2,1.2,4,1.7,6
					c0.1,0.5,0.3,0.7,0.8,0.6c1.2,0,2.4,0,3.6,0c0.4,0,0.6,0.1,0.6,0.6c0.1,2.5,0.1,2.5-2.3,2.5c-9,0-18.1,0-27.1,0
					c-0.8,0-1-0.2-1-1c0.1-2.1,0-2.1,2.1-2.1c0.9,0,2.1,0.4,2.7-0.1c0.6-0.5,0.6-1.6,0.9-2.5c0.4-1.4,0.7-2.7,1.2-4.1
					c0.2-0.7,0-0.8-0.6-0.8c-6.5,0-13,0-19.5,0c-3.8,0-6.8-2.2-7.7-5.8c-0.2-0.7-0.3-1.5-0.3-2.3c0-13.4,0-26.7,0-40.1
					c0-4.2,2.3-7,6.4-7.9l0.1-0.1C233.7,727.2,253.6,727.2,273.5,727.2z"/>
				<path class="st1" d="M212.9,818.2c-0.9-0.4-1.1-1.1-1.1-2c0-5.7,0-11.5,0-17.2c0-1.5,0.5-2,2-2c13.8,0,27.6,0,41.4,0
					c1.6,0,2.1,0.5,2.1,2.1c0,5.7,0,11.3,0,17c0,0.9-0.2,1.7-1.1,2.1C241.8,818.2,227.3,818.2,212.9,818.2z"/>
				<path class="st1" d="M266.5,818.2c-0.7-0.3-1.4-0.5-2.1-0.9c-2.6-1.4-4-3.6-4.1-6.6c-0.1-2.1,0-4.3,0-6.4
					c0.1-4.1,3.4-7.4,7.5-7.4s7.5,3.2,7.6,7.4c0,2.1,0,4.2,0,6.3c-0.1,3.7-2.5,6.6-6.1,7.3c-0.1,0-0.2,0-0.3,0.2
					C268.2,818.2,267.4,818.2,266.5,818.2z"/>
				<path class="st2" d="M243.5,769.6c-10.8,0-21.6,0-32.3,0c-0.8,0-1-0.2-1-1c0-11.1,0-22.3,0-33.4c0-3.3,1.8-5.1,5.1-5.1
					c18.8,0,37.7,0,56.5,0c3.3,0,5.1,1.8,5.1,5.1c0,11.1,0,22.3,0,33.4c0,0.8-0.2,1-1,1C265.2,769.6,254.4,769.6,243.5,769.6z"/>
				<path class="st2" d="M243.7,772.7c10.8,0,21.6,0,32.3,0c0.8,0,1.1,0.1,1,1c-0.1,0.7,0,1.4,0,2c-0.1,2.6-1.9,4.4-4.5,4.6
					c-0.2,0-0.4,0-0.6,0c-18.9,0-37.7,0-56.6,0c-2.2,0-3.8-0.8-4.7-2.8c-0.4-0.8-0.4-1.7-0.4-2.6c0-0.7-0.3-1.6,0.1-2
					c0.4-0.4,1.4-0.1,2.1-0.1C222.9,772.7,233.3,772.7,243.7,772.7z"/>
				<path class="st2" d="M236.6,790.8c0.7-2.4,1.4-4.8,2-7.1c0.1-0.4,0.4-0.3,0.6-0.3c2.9,0,5.9,0,8.8,0c0.4,0,0.6,0.2,0.7,0.6
					c0.6,2.1,1.2,4.3,1.8,6.4c0.1,0.4,0.2,0.6-0.4,0.6c-4.4,0-8.8,0-13.2,0C236.8,790.9,236.7,790.8,236.6,790.8z"/>
				<path class="st2" d="M234.5,815.1c-6.3,0-12.6,0-18.8,0c-0.7,0-0.9-0.2-0.9-0.9c0-4.5,0-9,0-13.5c0-0.7,0.2-0.8,0.8-0.8
					c12.6,0,25.2,0,37.8,0c0.7,0,0.9,0.2,0.9,0.9c0,4.5,0,8.9,0,13.4c0,0.8-0.2,0.9-0.9,0.9C247,815.1,240.8,815.1,234.5,815.1z"/>
				<path class="st2" d="M272.4,807.5c0,1,0,2.1,0,3.1c0,2.5-2.1,4.5-4.5,4.5c-2.5,0-4.5-2-4.5-4.5c0-2.1,0-4.1,0-6.2
					c0-2.5,2.1-4.5,4.6-4.4c2.5,0,4.4,1.9,4.5,4.4C272.4,805.5,272.4,806.5,272.4,807.5z"/>
				<path class="st1" d="M259.4,751.4c-2.4-2-4.7-4-7.1-5.9c-0.5-0.4-0.7-0.6-0.1-1.1c0.5-0.5,0.9-1.4,1.5-1.5s1.2,0.8,1.7,1.3
					c2.3,1.9,4.7,3.9,7,5.9c1.2,1,1.2,1.9,0,2.8c-2.7,2.3-5.5,4.6-8.2,6.9c-0.4,0.4-0.7,0.4-1-0.1s-0.7-0.9-1.1-1.3
					c-0.4-0.4-0.3-0.6,0.1-0.9C254.7,755.4,257,753.5,259.4,751.4z"/>
				<path class="st1" d="M227.8,751.4c2.4,2,4.7,4,7.1,5.9c0.5,0.4,0.7,0.6,0.1,1.1c-0.5,0.5-1,1.5-1.5,1.5s-1.2-0.8-1.7-1.3
					c-2.3-1.9-4.7-3.9-7-5.9c-1.2-1-1.2-1.9,0-2.8c2.7-2.3,5.5-4.6,8.2-6.9c0.4-0.4,0.7-0.4,1,0.1s0.7,0.9,1.1,1.3
					c0.4,0.4,0.3,0.6-0.1,1C232.6,747.4,230.2,749.4,227.8,751.4z"/>
				<path class="st1" d="M248,741.5c-0.1,0.2-0.1,0.4-0.2,0.6c-1.9,6.5-3.8,13.1-5.6,19.6c-0.2,0.7-0.4,0.8-1,0.5
					c-0.7-0.3-1.7-0.2-2-0.7c-0.2-0.5,0.3-1.3,0.5-2c1.7-6.1,3.5-12.1,5.2-18.2c0.2-0.8,0.5-0.9,1.2-0.6c0.5,0.2,1,0.3,1.5,0.5
					C247.8,741.2,248.1,741.2,248,741.5z"/>
				<path class="st3" d="M234.5,809.1c3.3,0,6.6,0,9.9,0c0.6,0,0.8,0.1,0.8,0.7c-0.1,0.7,0.2,1.7-0.1,2.1c-0.4,0.5-1.4,0.2-2.1,0.2
					c-6.1,0-12.1,0-18.2,0c-0.7,0-0.9-0.1-0.8-0.8c0.1-0.7-0.3-1.7,0.2-2.1c0.4-0.4,1.4-0.1,2.1-0.1
					C228.9,809.1,231.7,809.1,234.5,809.1z"/>
				<path class="st4" d="M243.6,803c1.5,0,1.5,0,1.5,1.5s0,1.5-1.5,1.5s-1.5,0-1.5-1.5S242.1,803,243.6,803z"/>
				<path class="st5" d="M219.3,806.1c-1.5,0-1.5,0-1.5-1.5c0-1.6,0-1.6,1.6-1.6c1.5,0,1.5,0,1.5,1.5
					C220.9,806.1,220.9,806.1,219.3,806.1z"/>
				<path class="st6" d="M226.9,804.5c0,1.5,0,1.5-1.5,1.5s-1.5,0-1.5-1.5s0-1.5,1.5-1.5S226.9,803,226.9,804.5z"/>
				<path class="st7" d="M231.4,806.1c-1.4,0-1.4,0-1.4-1.4c0-1.6,0-1.6,1.6-1.6c1.4,0,1.4,0,1.4,1.4
					C233,806.1,233,806.1,231.4,806.1z"/>
				<path class="st8" d="M219.4,812.1c-1.5,0-1.5,0-1.5-1.5s0-1.5,1.5-1.5s1.5,0,1.5,1.5S220.9,812.1,219.4,812.1z"/>
				<path class="st7" d="M249.7,809.1c1.5,0,1.5,0,1.5,1.5s0,1.5-1.5,1.5c-1.6,0-1.6,0-1.6-1.5C248.2,809.1,248.2,809.1,249.7,809.1
					z"/>
				<path class="st9" d="M237.5,806.1c-1.5,0-1.5,0-1.5-1.5s0-1.5,1.5-1.5c1.6,0,1.6,0,1.6,1.6C239.1,806.1,239.1,806.1,237.5,806.1
					z"/>
				<path class="st9" d="M249.7,803c1.6,0,1.6,0,1.6,1.6c0,1.5,0,1.5-1.5,1.5c-1.6,0-1.6,0-1.6-1.6C248.2,803,248.2,803,249.7,803z"
					/>
				<path class="st5" d="M269.4,804.6c0,1.5,0,1.5-1.5,1.5s-1.5,0-1.5-1.5c0-1.6,0-1.6,1.5-1.6S269.4,803,269.4,804.6z"/>
			</g>
		</g>
	</g>
</g>
</svg>
